<svg xmlns="http://www.w3.org/2000/svg" class="w-full h-auto" width="461" height="301" version="1.1" viewBox="0 0 121.973 79.64">
  <defs>
    <clipPath id="a">
      <path d="M930 1048h461v301H930z"/>
    </clipPath>
  </defs>
  <g clip-path="url(#a)" transform="matrix(.26458 0 0 .26458 -246.062 -277.283)">
    <path fill="none" d="M930 1048h460v300H930z"/>
    <path fill="none" stroke="#d9d9d9" stroke-linejoin="round" stroke-miterlimit="10" d="M989.5 1280.5h381m-381-36h381m-381-37h381m-381-36h381m-381-37h381m-381-37h381M989.5 1317.5h381"/>
    <path fill="none" stroke="#5b9bd5" stroke-linecap="round" stroke-linejoin="round" stroke-miterlimit="10" stroke-width="3" d="M995.5 1313.5h13l12-18 12 4 13-30 12-18 12 18 12-14 13 11 12-4 12-18 13 25 12-18h12l13-11 12-33 12 44 12-44 13 18 12 41 12-26 13-33 12 40 12-14 12 14 13 15 12 7 12-11 13-47 12 3 12-80"/>
    <g fill="#5b9bd5" stroke="#5b9bd5" stroke-linejoin="round" stroke-miterlimit="10">
      <path d="M998.1 1313.9c0 1.66-1.343 3-3 3s-3-1.34-3-3 1.343-3 3-3 3 1.34 3 3zM1011.1 1313.9c0 1.66-1.34 3-3 3s-3-1.34-3-3 1.34-3 3-3 3 1.34 3 3zM1023.1 1295.9c0 1.66-1.34 3-3 3s-3-1.34-3-3 1.34-3 3-3 3 1.34 3 3zM1035.1 1299.9c0 1.66-1.34 3-3 3s-3-1.34-3-3 1.34-3 3-3 3 1.34 3 3zM1048.1 1269.9c0 1.66-1.34 3-3 3s-3-1.34-3-3 1.34-3 3-3 3 1.34 3 3zM1060.1 1251.9c0 1.66-1.34 3-3 3s-3-1.34-3-3 1.34-3 3-3 3 1.34 3 3zM1072.1 1269.9c0 1.66-1.34 3-3 3s-3-1.34-3-3 1.34-3 3-3 3 1.34 3 3zM1084.1 1255.9c0 1.66-1.34 3-3 3s-3-1.34-3-3 1.34-3 3-3 3 1.34 3 3zM1097.1 1266.9c0 1.66-1.34 3-3 3s-3-1.34-3-3 1.34-3 3-3 3 1.34 3 3zM1109.1 1262.9c0 1.66-1.34 3-3 3s-3-1.34-3-3 1.34-3 3-3 3 1.34 3 3zM1121.1 1244.9c0 1.66-1.34 3-3 3s-3-1.34-3-3 1.34-3 3-3 3 1.34 3 3zM1134.1 1269.9c0 1.66-1.34 3-3 3s-3-1.34-3-3 1.34-3 3-3 3 1.34 3 3zM1146.1 1251.9c0 1.66-1.34 3-3 3s-3-1.34-3-3 1.34-3 3-3 3 1.34 3 3zM1158.1 1251.9c0 1.66-1.34 3-3 3s-3-1.34-3-3 1.34-3 3-3 3 1.34 3 3zM1171.1 1240.9c0 1.66-1.34 3-3 3s-3-1.34-3-3 1.34-3 3-3 3 1.34 3 3zM1183.1 1207.9c0 1.66-1.34 3-3 3s-3-1.34-3-3 1.34-3 3-3 3 1.34 3 3zM1195.1 1251.9c0 1.66-1.34 3-3 3s-3-1.34-3-3 1.34-3 3-3 3 1.34 3 3zM1207.1 1207.9c0 1.66-1.34 3-3 3s-3-1.34-3-3 1.34-3 3-3 3 1.34 3 3zM1220.1 1225.9c0 1.66-1.34 3-3 3s-3-1.34-3-3 1.34-3 3-3 3 1.34 3 3zM1232.1 1266.9c0 1.66-1.34 3-3 3s-3-1.34-3-3 1.34-3 3-3 3 1.34 3 3zM1244.1 1240.9c0 1.66-1.34 3-3 3s-3-1.34-3-3 1.34-3 3-3 3 1.34 3 3zM1257.1 1207.9c0 1.66-1.34 3-3 3s-3-1.34-3-3 1.34-3 3-3 3 1.34 3 3zM1269.1 1247.9c0 1.66-1.34 3-3 3s-3-1.34-3-3 1.34-3 3-3 3 1.34 3 3zM1281.1 1233.9c0 1.66-1.34 3-3 3s-3-1.34-3-3 1.34-3 3-3 3 1.34 3 3zM1293.1 1247.9c0 1.66-1.34 3-3 3s-3-1.34-3-3 1.34-3 3-3 3 1.34 3 3zM1306.1 1262.9c0 1.66-1.34 3-3 3s-3-1.34-3-3 1.34-3 3-3 3 1.34 3 3zM1318.1 1269.9c0 1.66-1.34 3-3 3s-3-1.34-3-3 1.34-3 3-3 3 1.34 3 3zM1330.1 1258.9c0 1.66-1.34 3-3 3s-3-1.34-3-3 1.34-3 3-3 3 1.34 3 3zM1343.1 1211.9c0 1.66-1.34 3-3 3s-3-1.34-3-3 1.34-3 3-3 3 1.34 3 3zM1355.1 1214.9c0 1.66-1.34 3-3 3s-3-1.34-3-3 1.34-3 3-3 3 1.34 3 3zM1367.1 1134.9c0 1.66-1.34 3-3 3s-3-1.34-3-3 1.34-3 3-3 3 1.34 3 3z"/>
    </g>
    <text fill="currentColor" font-family="Calibri, Calibri_MSFontService, sans-serif" font-size="12" font-weight="400" transform="translate(972.62 1320)">0</text>
    <text fill="currentColor" font-family="Calibri, Calibri_MSFontService, sans-serif" font-size="12" font-weight="400" transform="translate(966.54 1284)">10</text>
    <text fill="currentColor" font-family="Calibri, Calibri_MSFontService, sans-serif" font-size="12" font-weight="400" transform="translate(966.54 1247)">20</text>
    <text fill="currentColor" font-family="Calibri, Calibri_MSFontService, sans-serif" font-size="12" font-weight="400" transform="translate(966.54 1211)">30</text>
    <text fill="currentColor" font-family="Calibri, Calibri_MSFontService, sans-serif" font-size="12" font-weight="400" transform="translate(966.54 1174)">40</text>
    <text fill="currentColor" font-family="Calibri, Calibri_MSFontService, sans-serif" font-size="12" font-weight="400" transform="translate(966.54 1137)">50</text>
    <text fill="currentColor" font-family="Calibri, Calibri_MSFontService, sans-serif" font-size="12" font-weight="400" transform="translate(966.54 1101)">60</text>
    <text fill="currentColor" font-family="Calibri, Calibri_MSFontService, sans-serif" font-size="12" font-weight="400" transform="translate(983.817 1336)">1990</text>
    <text fill="currentColor" font-family="Calibri, Calibri_MSFontService, sans-serif" font-size="12" font-weight="400" transform="translate(1045.26 1336)">1995</text>
    <text fill="currentColor" font-family="Calibri, Calibri_MSFontService, sans-serif" font-size="12" font-weight="400" transform="translate(1106.71 1336)">2000</text>
    <text fill="currentColor" font-family="Calibri, Calibri_MSFontService, sans-serif" font-size="12" font-weight="400" transform="translate(1168.15 1336)">2005</text>
    <text fill="currentColor" font-family="Calibri, Calibri_MSFontService, sans-serif" font-size="12" font-weight="400" transform="translate(1229.6 1336)">2010</text>
    <text fill="currentColor" font-family="Calibri, Calibri_MSFontService, sans-serif" font-size="12" font-weight="400" transform="translate(1291.04 1336)">2015</text>
    <text fill="currentColor" font-family="Calibri, Calibri_MSFontService, sans-serif" font-size="12" font-weight="400" transform="translate(1352.49 1336)">2020</text>
    <text fill="currentColor" font-family="Calibri, Calibri_MSFontService, sans-serif" font-size="13" font-weight="400" transform="rotate(-90 1112.133 152.867)">Anzahl Publikationen</text>
    <text fill="currentColor" font-family="Calibri, Calibri_MSFontService, sans-serif" font-size="19" font-weight="400" transform="translate(1143.17 1076)">FEM</text>
    <path fill="none" stroke="#d9d9d9" stroke-linejoin="round" stroke-miterlimit="10" d="M930.5 1048.5h460v300h-460z"/>
  </g>
</svg>
