<?xml version="1.0" encoding="UTF-8" standalone="no"?>

<svg
   width="100%"
   height="100%"
   viewBox="0 0 135.46667 135.46667"
   version="1.1"
   xmlns="http://www.w3.org/2000/svg">
    <path
       d="M 67.733333 0 A 67.73333 67.73333 0 0 0 0 67.733333 A 67.73333 67.73333 0 0 0 67.733333 135.46667 A 67.73333 67.73333 0 0 0 135.46667 67.733333 A 67.73333 67.73333 0 0 0 67.733333 0 z M 25.000024 34.999931 L 33.785018 34.999931 L 44.852559 34.999931 C 52.431758 34.999931 58.288438 36.966684 62.422546 40.899829 C 66.585364 44.804265 68.66661 50.316434 68.66661 57.436287 L 68.66661 59.999955 L 68.66661 75.178357 L 68.66661 84.080139 L 83.48431 66.307064 L 83.857414 66.307064 L 94.768892 66.307064 L 95.141479 66.307064 L 109.95918 84.080139 L 109.95918 34.999931 L 118.62635 34.999931 L 118.62635 97.614714 L 109.95918 97.614714 L 89.312895 72.85085 L 68.66661 97.614714 L 59.999955 97.614714 L 59.999955 93.660433 C 59.283729 94.140288 58.530507 94.58636 57.728259 94.987484 C 54.168333 96.738738 49.86195 97.614714 44.809151 97.614714 L 33.785018 97.614714 L 25.000024 97.614714 L 25.000024 34.999931 z M 33.785018 43.35446 L 33.785018 89.260185 L 45.110942 89.260185 C 49.733104 89.260185 53.307402 88.06858 55.833801 85.685726 C 58.38891 83.274163 59.666125 79.88682 59.666125 75.523039 L 59.666125 57.091606 C 59.666125 52.727825 58.38891 49.354664 55.833801 46.97181 C 53.307402 44.560247 49.733104 43.35446 45.110942 43.35446 L 33.785018 43.35446 z " />
</svg>
