<?xml version="1.0" encoding="UTF-8" standalone="no"?>
<!-- Creator: CorelDRAW -->

<svg
   xml:space="preserve"
   width="100%"
   height="100%"
   version="1.1"
   style="clip-rule:evenodd;fill-rule:evenodd;image-rendering:optimizeQuality;shape-rendering:geometricPrecision;text-rendering:geometricPrecision"
   viewBox="0 0 2833 2833"
   id="svg2"
   sodipodi:docname="pdf.svg"
   inkscape:version="1.3 (0e150ed6c4, 2023-07-21)"
   xmlns:inkscape="http://www.inkscape.org/namespaces/inkscape"
   xmlns:sodipodi="http://sodipodi.sourceforge.net/DTD/sodipodi-0.dtd"
   xmlns="http://www.w3.org/2000/svg"
   xmlns:svg="http://www.w3.org/2000/svg"><sodipodi:namedview
   id="namedview2" />&#10; <defs
   id="defs1"><mask
     maskUnits="userSpaceOnUse"
     id="mask3"><g
       id="g5"><rect
         style="clip-rule:evenodd;fill:#ffffff;fill-opacity:1;fill-rule:evenodd;stroke-width:10.4155;image-rendering:optimizeQuality;shape-rendering:geometricPrecision;text-rendering:geometricPrecision"
         id="rect4"
         width="2833"
         height="2833"
         x="0"
         y="0" /><path
         d="M 1912,2270 H 925 c -103,0 -187,-90 -187,-200 V 763 c 0,-110 84,-200 187,-200 h 780 v 23 1 9 317 c 0,39 31,70 70,70 h 289 8 v 0 h 23 v 1087 c 0,53 -19,103 -52,140 -35,39 -81,60 -131,60 z m -67,-267 H 988 c -13,0 -23,-10 -23,-23 0,-13 10,-23 23,-23 h 857 c 13,0 23,10 23,23 0,13 -10,23 -23,23 z m 0,-246 H 988 c -13,0 -23,-11 -23,-24 0,-13 10,-23 23,-23 h 857 c 13,0 23,10 23,23 0,13 -10,24 -23,24 z m 0,-247 H 988 c -13,0 -23,-10 -23,-23 0,-13 10,-24 23,-24 h 857 c 13,0 23,11 23,24 0,13 -10,23 -23,23 z m 0,-243 H 988 c -13,0 -23,-11 -23,-24 0,-13 10,-23 23,-23 h 857 c 13,0 23,10 23,23 0,13 -10,24 -23,24 z m -603,-197 c -13,0 -24,-10 -24,-23 v -220 -7 c 0,-13 11,-23 24,-23 h 73 c 55,0 100,43 100,96 v 77 c 0,56 -44,100 -100,100 z m 380,-123 h -60 v 100 c 0,13 -11,23 -24,23 -13,0 -23,-10 -23,-23 V 923 820 c 0,-13 10,-23 23,-23 h 107 c 13,0 23,10 23,23 0,13 -10,23 -23,23 h -83 v 57 h 60 c 13,0 23,10 23,23 0,13 -10,24 -23,24 z m -567,0 h -43 v 100 c 0,13 -11,23 -24,23 -13,0 -23,-10 -23,-23 v -124 0 -103 c 0,-13 10,-23 23,-23 h 67 c 40,0 73,33 73,73 0,42 -33,77 -73,77 z m -43,-47 h 43 c 13,0 27,-12 27,-30 0,-14 -13,-27 -27,-27 h -43 z m 253,-57 v 180 h 50 c 30,0 53,-23 53,-53 v -77 c 0,-28 -23,-50 -53,-50 z"
         id="path4"
         style="mix-blend-mode:normal;fill:#000000;fill-opacity:1" /><path
         d="m 2072,937 h -297 c -13,0 -23,-11 -23,-24 V 587 c 0,-10 6,-19 15,-22 9,-3 19,-1 25,6 l 297,327 c 6,7 8,16 4,25 -4,8 -12,14 -21,14 z"
         id="path5"
         style="fill:#000000;fill-opacity:1" /></g></mask></defs>&#10; <g
   id="Layer_x0020_1"
   inkscape:label="Layer 1"
   inkscape:groupmode="layer">&#10;  <metadata
   id="CorelCorpID_0Corel-Layer" />&#10;  <circle
   cx="1417"
   cy="1417"
   r="1417"
   id="circle1"
   mask="url(#mask3)" />&#10;  &#10;  &#10; </g>&#10;</svg>
